<?xml version="1.0" standalone="no"?>
<!DOCTYPE svg PUBLIC "-//W3C//DTD SVG 20010904//EN"
 "http://www.w3.org/TR/2001/REC-SVG-20010904/DTD/svg10.dtd">
<svg version="1.0" xmlns="http://www.w3.org/2000/svg"
 width="1254.000000pt" height="1254.000000pt" viewBox="0 0 1254.000000 1254.000000"
 preserveAspectRatio="xMidYMid meet">

<g transform="translate(0.000000,1254.000000) scale(0.100000,-0.100000)"
fill="#000000" stroke="none">
<path d="M3501 10579 c-255 -142 -435 -276 -638 -473 -563 -546 -883 -1309
-883 -2106 0 -534 97 -1001 297 -1430 39 -84 164 -307 191 -341 18 -21 18 -21
47 42 15 35 51 114 80 174 28 61 69 147 90 192 l37 82 -70 143 c-340 689 -418
1375 -236 2086 95 374 297 779 538 1082 152 190 397 418 596 555 146 100 140
100 -49 -6z"/>
<path d="M4251 9653 c-10 -21 -75 -164 -144 -318 -69 -154 -288 -638 -487
-1075 -199 -437 -437 -959 -528 -1160 -91 -201 -231 -511 -313 -690 l-147
-325 446 -3 c397 -2 448 0 459 13 6 9 33 71 60 137 l48 121 315 266 c173 147
385 325 470 396 85 71 162 134 171 142 13 11 51 -17 280 -209 145 -122 365
-306 489 -409 l225 -187 85 -212 c46 -117 89 -214 95 -216 5 -2 213 -3 461 -2
l451 3 -59 140 c-133 313 -629 1474 -1074 2515 l-473 1105 -405 3 -405 2 -20
-37z m550 -1343 c83 -206 212 -523 285 -705 l132 -330 148 -160 c81 -88 269
-286 418 -440 149 -154 255 -266 235 -250 -20 17 -92 77 -160 135 -68 57 -288
241 -489 409 -396 331 -577 483 -683 574 -59 50 -71 56 -85 45 -10 -7 -52 -41
-95 -77 -72 -59 -129 -89 -167 -91 -9 0 -71 -32 -139 -70 -69 -39 -126 -69
-127 -67 -2 2 64 174 147 383 83 208 207 523 276 699 69 176 128 326 131 334
7 19 1 32 173 -389z"/>
<path d="M6320 8400 l0 -1280 59 -132 c32 -73 118 -270 191 -438 73 -168 157
-360 186 -428 30 -68 61 -140 70 -161 l15 -38 592 -6 c615 -7 752 -15 1002
-57 199 -35 398 -92 570 -163 33 -14 61 -24 63 -23 1 2 -7 29 -19 62 -52 148
-64 377 -29 558 27 137 60 238 119 357 l48 97 -63 -29 c-92 -41 -205 -75 -313
-93 -81 -14 -205 -16 -888 -16 l-793 0 0 1535 0 1535 -405 0 -405 0 0 -1280z"/>
<path d="M8892 9630 c-5 -136 -25 -357 -33 -372 -5 -10 -9 -175 -9 -368 0
-227 -4 -350 -10 -350 -7 0 -10 -147 -10 -420 0 -445 1 -431 -44 -414 -13 5
-16 22 -16 83 -1 75 -13 111 -39 111 -6 0 -11 8 -11 18 0 9 -11 30 -25 45 -27
28 -59 34 -123 21 -26 -5 -32 -12 -37 -45 -5 -29 -12 -39 -25 -39 -25 0 -30
-19 -30 -117 0 -84 0 -85 -22 -79 -13 3 -26 6 -30 6 -5 0 -8 140 -8 311 0 263
-2 313 -15 325 -8 9 -15 24 -15 35 0 26 -32 88 -65 128 -22 25 -34 31 -66 31
l-39 0 -1 48 c-1 26 -5 99 -9 162 l-7 115 -1 -95 c-1 -52 -5 -125 -9 -162 l-6
-68 -38 0 c-29 0 -43 -6 -64 -31 -38 -45 -65 -103 -65 -139 0 -20 -5 -30 -15
-30 -13 0 -15 -33 -15 -235 l0 -235 -44 0 c-30 0 -46 -5 -50 -15 -3 -8 -12
-15 -21 -15 -13 0 -15 -24 -15 -166 l0 -165 -32 3 -33 3 0 255 0 255 -37 3
-38 3 0 55 0 54 -167 -2 -168 -3 -3 -52 c-3 -51 -4 -53 -33 -53 l-29 0 -2
-482 c-1 -266 -2 -499 -2 -518 l0 -35 92 -3 92 -3 48 44 c277 255 614 427 960
489 153 27 420 29 567 4 371 -63 670 -210 969 -475 l69 -61 142 0 142 0 17 45
c27 69 77 92 140 64 25 -12 56 -63 56 -93 0 -14 10 -16 68 -14 l67 3 3 263 2
262 -24 0 c-42 0 -56 11 -56 41 0 28 -2 29 -49 29 -46 0 -49 1 -55 31 -3 17
-6 229 -6 469 l0 438 -40 7 -40 7 0 88 c0 79 -2 88 -20 93 -11 3 -20 12 -20
21 0 10 -11 19 -30 23 -28 5 -30 9 -30 49 l0 44 -64 0 -65 0 -3 -47 c-3 -43
-6 -48 -28 -51 -14 -2 -29 -10 -33 -18 -4 -8 -17 -14 -27 -14 -18 0 -20 -7
-20 -95 l0 -95 -30 0 c-16 0 -33 0 -37 0 -5 0 -10 -244 -13 -542 l-5 -543 -35
0 -35 0 -3 247 c-2 246 -2 247 -25 250 -12 2 -23 11 -26 23 -2 11 -10 24 -18
28 -8 5 -18 20 -23 33 -9 23 -13 24 -109 24 -107 0 -131 -5 -131 -26 0 -7 -9
-18 -20 -24 -12 -6 -20 -21 -20 -35 0 -20 -5 -25 -25 -25 l-25 0 0 -195 0
-195 -25 0 -25 0 0 198 c0 186 1 200 20 217 19 17 20 31 20 292 0 175 -4 273
-10 273 -6 0 -10 125 -10 354 0 195 -4 357 -9 360 -8 5 -11 39 -29 301 l-7
110 -6 -105 c-4 -58 -12 -183 -19 -277 l-14 -173 -256 0 -256 0 -14 183 c-7
100 -16 227 -20 282 -3 55 -7 80 -8 55z m361 -611 c67 -34 127 -75 127 -88 0
-5 -43 -37 -95 -71 l-95 -63 -95 63 c-52 34 -95 66 -95 71 0 11 53 47 125 86
33 18 61 33 63 33 1 0 31 -14 65 -31z m-322 -401 l-9 -33 -1 36 c-1 20 2 39 6
43 13 12 15 -10 4 -46z m526 -40 c-2 -13 -4 -5 -4 17 -1 22 1 32 4 23 2 -10 2
-28 0 -40z m-14 -75 c-3 -27 -9 -55 -14 -63 -8 -14 -2 69 7 98 9 29 13 8 7
-35z m-483 2 c2 17 3 16 10 -5 4 -14 8 -83 7 -155 0 -127 0 -128 -7 -45 -4 47
-13 112 -19 145 -12 68 -13 102 -1 65 7 -21 8 -22 10 -5z m457 -232 c-2 -21
-4 -4 -4 37 0 41 2 58 4 38 2 -21 2 -55 0 -75z"/>
<path d="M8673 7453 l-33 -4 0 -230 0 -229 105 0 105 0 2 210 c1 116 2 220 2
233 1 21 -3 22 -74 23 -41 1 -90 -1 -107 -3z"/>
<path d="M8887 7453 c-4 -3 -7 -109 -7 -235 l0 -229 118 3 117 3 3 212 c3 244
10 227 -98 238 -36 3 -79 8 -96 11 -17 2 -33 1 -37 -3z"/>
<path d="M8559 7440 c-25 -4 -71 -13 -102 -20 l-57 -11 0 -210 0 -209 105 0
105 0 0 230 c0 127 -1 229 -2 229 -2 -1 -24 -5 -49 -9z"/>
<path d="M9142 7209 l3 -214 120 0 120 0 0 180 0 179 -85 27 c-47 15 -102 30
-123 34 l-37 7 2 -213z"/>
<path d="M8277 7370 c-130 -44 -122 -36 -126 -131 -1 -46 1 -120 4 -166 l7
-83 104 0 104 0 0 205 c0 113 -1 205 -2 205 -2 0 -43 -14 -91 -30z"/>
<path d="M9416 7331 c-3 -5 -4 -82 -3 -172 l2 -164 123 -3 122 -3 1 38 c1 21
3 71 5 110 3 69 1 73 -24 91 -62 44 -219 115 -226 103z"/>
<path d="M8013 7253 l-103 -58 0 -103 0 -103 108 3 107 3 3 158 c1 86 -1 157
-5 157 -5 0 -54 -26 -110 -57z"/>
<path d="M9690 7090 l0 -100 130 0 c72 0 130 4 130 8 0 17 -228 192 -249 192
-7 0 -11 -34 -11 -100z"/>
<path d="M7803 7118 c-77 -58 -143 -114 -143 -123 0 -3 50 -5 110 -5 l110 0 0
90 c0 50 -2 90 -3 90 -2 0 -35 -24 -74 -52z"/>
<path d="M10511 6934 c0 -11 3 -14 6 -6 3 7 2 16 -1 19 -3 4 -6 -2 -5 -13z"/>
<path d="M7318 6855 c-1 -31 1 -54 6 -52 5 2 29 26 54 55 l45 52 -51 0 -50 0
-4 -55z"/>
<path d="M7526 6856 c-25 -30 -46 -59 -46 -65 0 -8 243 -10 853 -8 l852 2 40
24 c22 12 47 29 55 36 8 6 35 24 60 38 l45 27 -906 0 -907 0 -46 -54z"/>
<path d="M10226 6878 c16 -18 30 -34 30 -36 1 -2 17 6 35 17 19 12 41 21 50
21 9 0 22 7 29 15 11 13 1 15 -81 15 l-93 0 30 -32z"/>
<path d="M10526 6795 c4 -66 7 -131 7 -144 -1 -20 2 -18 20 15 19 33 32 41 94
63 l72 26 -72 25 c-69 24 -73 27 -100 80 l-28 55 7 -120z"/>
<path d="M9407 6829 c-20 -17 -37 -36 -37 -42 0 -7 8 -2 18 11 10 12 31 32 47
42 17 11 25 20 20 20 -6 0 -27 -14 -48 -31z"/>
<path d="M9521 6843 c11 -13 11 -15 1 -9 -9 5 -23 -1 -40 -17 -32 -29 -90 -45
-70 -18 7 9 1 6 -13 -7 -14 -12 -28 -19 -32 -16 -9 9 -68 -78 -62 -94 2 -7 -2
-26 -10 -43 -10 -18 -11 -29 -5 -29 6 0 8 -6 5 -12 -4 -7 3 -2 14 11 12 13 21
19 21 14 0 -5 -5 -14 -11 -20 -17 -17 -3 -43 21 -43 18 0 19 -2 8 -13 -14 -14
-108 -19 -108 -5 0 5 14 36 31 69 17 34 28 63 25 66 -14 14 -101 -204 -131
-329 -25 -104 -35 -192 -13 -118 6 19 13 30 15 23 2 -7 11 -9 19 -6 7 3 12 8
9 13 -5 8 65 44 128 64 20 6 23 26 5 27 -7 0 -4 4 7 8 15 6 8 10 -32 16 -29 4
-53 8 -53 10 0 2 4 15 10 29 7 20 16 26 40 26 48 0 254 -31 263 -40 4 -4 5
-19 1 -34 -6 -27 -7 -27 -73 -22 -36 2 -56 2 -44 0 22 -5 22 -5 2 -25 -10 -10
-28 -19 -38 -19 -25 0 -50 -35 -44 -61 4 -15 0 -19 -18 -20 -38 -2 32 -16 110
-22 42 -4 57 -3 41 2 -14 5 -19 9 -11 10 8 1 11 8 8 20 -6 23 43 74 86 90 l29
11 -6 -42 c-4 -27 3 -12 19 42 72 235 159 385 264 452 l45 28 -55 -1 c-29 -1
-65 -5 -79 -9 -18 -7 -12 -8 25 -6 28 2 42 2 33 -1 -9 -2 -15 -10 -12 -18 7
-16 -32 -40 -41 -25 -15 25 -102 -29 -91 -56 4 -10 -2 -10 -24 -2 -16 5 -35 8
-42 5 -7 -3 -3 -6 10 -6 l23 -1 -25 -24 c-13 -14 -26 -30 -28 -37 -3 -8 -18
-10 -53 -4 -41 6 -47 9 -34 18 17 13 19 18 19 41 0 9 12 16 33 18 19 2 -10 9
-72 17 l-104 15 37 33 c20 19 41 31 47 27 10 -6 223 -35 244 -33 20 2 -41 17
-73 18 -18 1 -31 5 -27 10 3 5 -3 12 -12 15 -10 2 16 3 57 1 69 -4 67 -3 -35
12 -68 10 -113 21 -118 29 -4 8 -13 14 -19 14 -6 0 -5 -7 3 -17z m-36 -223
c55 -6 114 -13 132 -16 l32 -6 -16 -34 c-17 -34 -17 -34 -72 -28 -41 4 -52 3
-41 -5 13 -9 13 -11 -2 -11 -10 0 -18 -4 -18 -10 0 -18 -39 -11 -50 9 -9 17
-6 20 22 23 21 2 0 8 -56 15 -49 7 -91 15 -93 17 -6 6 17 49 30 58 6 3 15 4
21 2 6 -2 56 -8 111 -14z m-31 -179 c3 -4 -6 -6 -19 -3 -14 2 -25 6 -25 8 0 8
39 4 44 -5z"/>
<path d="M9902 6633 c-30 -30 -34 -38 -20 -41 21 -4 52 -68 74 -152 22 -87 15
-282 -15 -393 -24 -92 -92 -235 -126 -267 -35 -32 -31 -15 15 82 60 125 91
257 97 415 5 119 3 139 -18 203 -27 84 -44 103 -66 75 -63 -82 -127 -291 -145
-472 -18 -177 15 -367 74 -430 41 -44 110 -24 164 48 180 240 241 798 103 945
-36 39 -92 33 -137 -13z"/>
<path d="M4390 6520 l0 -100 90 0 c50 0 93 0 98 0 4 0 7 44 7 98 l0 97 -97 3
-98 3 0 -101z"/>
<path d="M4647 6613 c-2 -5 -5 -49 -6 -99 l-3 -92 36 -4 c20 -2 65 -2 101 0
l65 4 0 99 0 99 -94 0 c-52 0 -97 -3 -99 -7z"/>
<path d="M10844 6385 c-4 -11 -14 -28 -23 -38 -13 -15 -13 -18 -1 -15 9 2 19
-12 28 -41 12 -36 16 -41 24 -26 6 9 29 25 52 36 22 10 33 19 24 19 -33 0 -71
25 -84 55 -11 27 -13 28 -20 10z"/>
<path d="M4390 6260 l0 -100 100 0 100 0 0 100 0 100 -100 0 -100 0 0 -100z"/>
<path d="M4640 6291 c0 -38 3 -83 6 -100 l7 -31 93 0 94 0 0 100 0 100 -100 0
-100 0 0 -69z"/>
<path d="M9383 6353 c9 -2 23 -2 30 0 6 3 -1 5 -18 5 -16 0 -22 -2 -12 -5z"/>
<path d="M9592 6220 c0 -14 2 -19 5 -12 2 6 2 18 0 25 -3 6 -5 1 -5 -13z"/>
<path d="M9278 6223 c7 -3 16 -2 19 1 4 3 -2 6 -13 5 -11 0 -14 -3 -6 -6z"/>
<path d="M9201 6204 c0 -11 3 -14 6 -6 3 7 2 16 -1 19 -3 4 -6 -2 -5 -13z"/>
<path d="M10440 6163 c0 -4 5 -15 10 -23 8 -13 10 -13 10 2 0 9 -4 20 -10 23
-5 3 -10 3 -10 -2z"/>
<path d="M10465 6099 c2 -15 -2 -46 -10 -70 -8 -24 -17 -69 -19 -99 -3 -30 -7
-66 -9 -80 -2 -14 6 -43 18 -65 17 -30 20 -46 14 -64 -11 -29 -15 -26 -33 25
-21 56 -19 29 3 -40 l18 -59 28 82 c15 45 37 93 49 107 13 15 54 35 105 52
l84 28 -44 13 c-24 6 -67 21 -95 32 -53 21 -57 26 -108 149 -3 8 -4 3 -1 -11z"/>
<path d="M2881 5900 l-143 -5 23 -20 24 -20 -15 20 c-14 18 -14 19 2 6 10 -7
16 -16 13 -20 -2 -4 37 -48 88 -98 497 -486 1118 -781 1853 -880 201 -27 613
-24 804 6 245 38 452 92 684 181 100 38 356 156 356 164 0 2 -36 -7 -80 -20
-101 -31 -321 -78 -475 -101 -152 -22 -622 -25 -790 -5 -642 79 -1208 323
-1702 734 l-82 68 -208 -2 c-114 -1 -273 -5 -352 -8z m179 -35 c13 -14 21 -25
18 -25 -2 0 -15 11 -28 25 -13 14 -21 25 -18 25 2 0 15 -11 28 -25z m61 -52
c13 -16 12 -17 -3 -4 -10 7 -18 15 -18 17 0 8 8 3 21 -13z m3046 -699 c-3 -3
-12 -4 -19 -1 -8 3 -5 6 6 6 11 1 17 -2 13 -5z m-50 -10 c-3 -3 -12 -4 -19 -1
-8 3 -5 6 6 6 11 1 17 -2 13 -5z m-44 -11 c-7 -2 -19 -2 -25 0 -7 3 -2 5 12 5
14 0 19 -2 13 -5z"/>
<path d="M10376 5840 c6 -8 16 -24 22 -35 6 -11 12 -15 12 -8 0 7 -10 22 -22
35 -13 13 -18 17 -12 8z"/>
<path d="M7430 5784 c-504 -46 -826 -119 -1390 -314 -113 -39 -268 -91 -345
-116 -117 -36 -131 -43 -85 -38 246 25 538 77 955 169 506 112 736 148 1067
166 360 21 692 -21 1031 -127 45 -15 170 -59 277 -99 309 -114 487 -153 647
-140 252 19 444 139 540 335 23 47 44 101 48 120 6 32 3 30 -38 -31 -59 -86
-160 -178 -239 -216 -115 -56 -170 -68 -313 -67 -185 1 -213 8 -720 183 -217
75 -402 118 -685 156 -111 15 -643 29 -750 19z"/>
<path d="M10245 5642 c-132 -292 -378 -458 -710 -481 -219 -15 -360 11 -748
138 -353 116 -490 148 -767 177 -244 26 -623 2 -895 -56 l-90 -19 135 4 c167
5 475 -9 635 -30 279 -36 509 -95 820 -211 370 -137 478 -163 697 -171 237 -8
350 13 533 102 208 101 348 274 406 506 27 105 21 121 -16 41z"/>
<path d="M6998 5393 c6 -2 18 -2 25 0 6 3 1 5 -13 5 -14 0 -19 -2 -12 -5z"/>
<path d="M8885 4634 c-216 -54 -357 -158 -435 -319 -21 -44 -44 -108 -51 -143
-14 -74 -7 -204 15 -275 55 -175 196 -314 380 -373 117 -38 308 -45 423 -16
120 30 187 66 267 143 82 78 85 67 -42 148 l-82 54 -55 -52 c-84 -80 -127 -95
-265 -96 -106 0 -120 2 -178 29 -140 65 -221 204 -209 361 16 214 176 344 407
333 73 -3 98 -9 153 -36 36 -18 81 -50 101 -73 21 -22 40 -39 45 -37 23 10
191 122 191 128 0 14 -91 101 -143 135 -30 20 -88 48 -128 62 -66 24 -91 27
-224 29 -82 2 -159 0 -170 -2z"/>
<path d="M2247 4588 c-26 -60 -214 -492 -342 -782 -69 -156 -125 -287 -125
-290 0 -3 60 -6 133 -6 l132 0 44 110 44 110 260 -2 260 -3 45 -107 45 -108
133 0 c74 0 134 2 134 3 0 2 -108 251 -239 553 l-240 549 -135 3 -135 3 -14
-33z m237 -450 c42 -103 76 -190 76 -195 0 -11 -290 -17 -316 -6 -21 8 -18 15
64 211 52 124 88 198 93 190 4 -7 41 -97 83 -200z"/>
<path d="M3250 4065 l0 -555 125 0 125 0 0 555 0 555 -125 0 -125 0 0 -555z"/>
<path d="M3810 4065 l0 -555 125 0 125 0 0 188 0 187 103 3 102 4 129 -191
130 -191 143 0 c79 0 143 1 143 3 0 2 -63 91 -139 198 l-140 194 59 27 c77 35
152 105 181 171 33 73 34 230 2 299 -46 102 -153 180 -281 207 -32 7 -177 11
-367 11 l-315 0 0 -555z m602 344 c130 -28 178 -177 87 -268 -43 -43 -83 -51
-271 -51 l-168 0 0 165 0 165 150 0 c82 0 173 -5 202 -11z"/>
<path d="M5650 4065 l0 -557 323 5 c296 4 328 6 397 26 190 56 317 172 378
345 32 92 36 249 8 341 -54 179 -174 300 -360 362 -80 27 -83 27 -413 31
l-333 3 0 -556z m570 344 c128 -20 222 -85 272 -187 20 -40 23 -62 23 -152 0
-95 -3 -111 -28 -162 -39 -80 -111 -142 -194 -168 -54 -17 -93 -20 -229 -20
l-164 0 0 343 c0 189 3 347 7 350 10 11 241 8 313 -4z"/>
<path d="M7010 4266 c0 -194 5 -377 10 -407 35 -186 175 -316 383 -356 118
-22 307 -14 402 18 135 45 236 136 287 258 22 55 23 65 26 449 l3 392 -125 0
-126 0 0 -347 c0 -197 -4 -363 -10 -383 -18 -66 -63 -123 -121 -155 -46 -25
-68 -30 -145 -33 -126 -6 -191 14 -253 76 -74 74 -74 79 -78 485 l-4 357 -125
0 -124 0 0 -354z"/>
<path d="M9760 4520 l0 -100 193 -2 192 -3 3 -453 2 -453 123 3 122 3 0 265
c1 146 2 349 3 453 l2 187 190 0 190 0 0 100 0 100 -510 0 -510 0 0 -100z"/>
<path d="M3526 3234 c-97 -35 -156 -122 -156 -227 0 -82 17 -130 62 -182 55
-62 128 -89 224 -82 40 3 85 12 100 20 30 16 91 74 83 80 -2 2 -19 14 -37 26
l-33 23 -22 -20 c-81 -76 -208 -58 -257 37 -56 111 4 243 117 258 50 7 105
-10 134 -41 l23 -24 38 25 c21 14 38 29 38 33 0 14 -46 49 -90 69 -54 25 -164
27 -224 5z"/>
<path d="M4220 2998 l0 -248 168 0 167 0 0 40 0 40 -117 0 -118 0 0 208 0 207
-50 1 -50 1 0 -249z"/>
<path d="M4938 2998 l-3 -248 183 0 182 0 0 40 0 40 -135 0 -136 0 3 63 3 62
123 3 122 3 0 39 0 40 -125 0 -125 0 0 60 0 60 88 1 c48 1 108 2 134 3 l48 1
0 40 0 40 -180 1 -179 0 -3 -248z m319 -184 c-3 -3 -12 -4 -19 -1 -8 3 -5 6 6
6 11 1 17 -2 13 -5z"/>
<path d="M5765 3010 c-54 -129 -100 -241 -102 -247 -4 -10 10 -13 50 -13 l55
0 17 50 17 50 117 0 117 0 18 -50 18 -50 54 0 c30 0 54 2 54 4 0 2 -26 66 -57
142 -31 77 -75 186 -99 243 l-42 105 -60 0 -60 1 -97 -235z m199 25 c20 -52
36 -97 36 -100 0 -3 -36 -5 -80 -5 -48 0 -80 4 -80 10 0 16 74 190 81 190 4 0
23 -43 43 -95z"/>
<path d="M6583 3242 l-23 -3 0 -245 0 -244 45 0 45 0 0 165 c0 91 4 165 8 165
4 0 64 -74 132 -165 l125 -165 47 0 48 0 0 248 0 247 -45 -3 -45 -4 0 -160 c0
-99 -4 -158 -10 -156 -5 2 -37 39 -71 83 -33 44 -66 80 -72 80 -7 1 -11 7 -9
13 1 7 -20 43 -48 80 -52 69 -63 74 -127 64z m374 -18 c-3 -3 -12 -4 -19 -1
-8 3 -5 6 6 6 11 1 17 -2 13 -5z"/>
<path d="M7483 3243 l-33 -4 0 -245 0 -244 45 0 45 0 0 250 c0 194 -3 250 -12
248 -7 0 -28 -3 -45 -5z"/>
<path d="M7970 2998 l0 -248 50 0 50 0 0 167 c0 160 1 166 18 150 10 -10 22
-14 27 -10 4 5 5 2 1 -4 -8 -15 111 -176 123 -168 5 2 8 -3 7 -13 0 -9 5 -16
12 -14 8 1 11 -2 8 -7 -3 -4 10 -29 30 -55 33 -44 37 -46 84 -46 l50 0 0 248
0 247 -50 0 -50 0 0 -163 c0 -90 -4 -161 -9 -158 -4 3 -62 77 -128 163 l-120
158 -52 0 -51 0 0 -247z"/>
<path d="M8980 3241 c-69 -21 -121 -65 -156 -131 -30 -55 -26 -181 6 -240 69
-124 246 -166 390 -93 l55 29 5 107 5 107 -112 0 -113 0 0 -40 0 -40 66 0 65
0 -3 -42 c-3 -40 -6 -44 -49 -62 -158 -65 -299 113 -208 261 46 75 157 94 237
41 l38 -25 32 27 32 26 -28 27 c-42 40 -93 57 -169 56 -37 0 -79 -4 -93 -8z"/>
<path d="M1840 2998 l0 -23 590 0 590 0 0 23 0 22 -590 0 -590 0 0 -22z"/>
<path d="M9617 3000 c5 -20 14 -20 584 -20 572 0 579 0 579 20 0 20 -7 20
-584 20 -579 0 -584 0 -579 -20z"/>
</g>
</svg>
